<svg height="300" width="300" xmlns="http://www.w3.org/2000/svg" viewBox="0 0 100 100"><path d="M19.872 47.43l1.263 2.157-1.294.758-1.264-2.157zm3.846.648l-1.264-2.157 2.58-1.511 1.264 2.157-2.58 1.511zm5.16-3.023l-1.264-2.157 2.58-1.511 1.264 2.157-2.58 1.511zm5.16-3.022l-1.264-2.157 2.58-1.511 1.264 2.157-2.58 1.511zm5.16-3.023l-1.264-2.157 2.58-1.511 1.264 2.157-2.58 1.511zm5.16-3.022l-1.264-2.157 2.58-1.511 1.264 2.157-2.58 1.511zm6.475-3.019l-.656-.389-.659.386-1.264-2.157 1.931-1.131 1.923 1.14zm25.479 15.1l-2.548-1.51 1.275-2.15 2.548 1.51-1.275 2.15zm-5.096-3.02l-2.548-1.51 1.275-2.15 2.548 1.51-1.275 2.15zm-5.096-3.02l-2.548-1.51 1.275-2.15 2.548 1.51-1.275 2.15zm-5.096-3.02l-2.548-1.51 1.275-2.15 2.548 1.51-1.275 2.15zm-5.095-3.02l-2.548-1.51 1.275-2.15 2.548 1.51-1.275 2.15zm24.203 11.438l1.29.765-1.275 2.15-1.29-.764z"/><path d="M50.19 3.438L16.75 49.249l33.44 47.39 33.05-47.39L50.19 3.438zm1.991 9.596l25.705 35.629-25.705 15.234V13.034zm-4 50.884L22.132 48.661l26.049-35.685v50.942zm0 4.636v18.3l-22.009-31.19 22.009 12.89zm4-.007l21.688-12.853-21.688 31.098V68.547z"/></svg>