<svg height="300px" width="300px" fill="#000000" xmlns="http://www.w3.org/2000/svg" xmlns:xlink="http://www.w3.org/1999/xlink" version="1.1" x="0px" y="0px" viewBox="0 0 100 100" enable-background="new 0 0 100 100" xml:space="preserve"><g><g><rect x="18.609" y="48.139" transform="matrix(0.5054 0.8629 -0.8629 0.5054 52.0059 7.0427)" width="2.5" height="1.5"/></g><g><path d="M23.718,48.078l-1.264-2.157l2.58-1.511l1.264,2.157L23.718,48.078z M28.878,45.055l-1.264-2.157l2.58-1.511l1.264,2.157    L28.878,45.055z M34.038,42.033l-1.264-2.157l2.58-1.511l1.264,2.157L34.038,42.033z M39.198,39.01l-1.264-2.157l2.58-1.511    l1.264,2.157L39.198,39.01z M44.358,35.988l-1.264-2.157l2.58-1.511l1.264,2.157L44.358,35.988z"/></g><g><polygon points="50.833,32.969 50.177,32.58 49.518,32.966 48.254,30.809 50.185,29.678 52.108,30.818   "/></g><g><path d="M76.312,48.069l-2.548-1.51l1.275-2.15l2.548,1.51L76.312,48.069z M71.216,45.049l-2.548-1.51l1.275-2.15l2.548,1.51    L71.216,45.049z M66.12,42.029l-2.548-1.51l1.275-2.15l2.548,1.51L66.12,42.029z M61.024,39.009l-2.548-1.51l1.275-2.15    l2.548,1.51L61.024,39.009z M55.929,35.989l-2.548-1.51l1.275-2.15l2.548,1.51L55.929,35.989z"/></g><g><rect x="79.393" y="47.636" transform="matrix(0.8602 0.5099 -0.5099 0.8602 36.1276 -34.0319)" width="1.5" height="2.5"/></g></g><path d="M50.19,3.438L16.75,49.249l33.44,47.39l33.05-47.39L50.19,3.438z M52.181,13.034l25.705,35.629L52.181,63.897V13.034z   M48.181,63.918L22.132,48.661l26.049-35.685V63.918z M48.181,68.554v18.3l-22.009-31.19L48.181,68.554z M52.181,68.547  l21.688-12.853L52.181,86.792V68.547z"/></svg>